<mxfile host="Electron" modified="2023-11-22T00:00:33.346Z" agent="Mozilla/5.0 (X11; Linux x86_64) AppleWebKit/537.36 (KHTML, like Gecko) draw.io/22.1.2 Chrome/114.0.5735.289 Electron/25.9.4 Safari/537.36" etag="oVYaV60E-GuvGo7rOha_" version="22.1.2" type="device">
  <diagram name="Page-1" id="WZHhWwJ0-XwW7t_8O0yg">
    <mxGraphModel dx="482" dy="280" grid="1" gridSize="10" guides="1" tooltips="1" connect="1" arrows="1" fold="1" page="1" pageScale="1" pageWidth="850" pageHeight="1100" math="1" shadow="0">
      <root>
        <mxCell id="0" />
        <mxCell id="1" parent="0" />
        <mxCell id="cTqHBYPlCums_SRUW2VV-4" style="edgeStyle=orthogonalEdgeStyle;rounded=0;orthogonalLoop=1;jettySize=auto;html=1;exitX=0;exitY=0.25;exitDx=0;exitDy=0;exitPerimeter=0;endArrow=oval;endFill=0;" edge="1" parent="1" source="cTqHBYPlCums_SRUW2VV-1">
          <mxGeometry relative="1" as="geometry">
            <mxPoint x="200" y="465.11627906976753" as="targetPoint" />
          </mxGeometry>
        </mxCell>
        <mxCell id="cTqHBYPlCums_SRUW2VV-5" style="edgeStyle=orthogonalEdgeStyle;rounded=0;orthogonalLoop=1;jettySize=auto;html=1;exitX=0;exitY=0.75;exitDx=0;exitDy=0;exitPerimeter=0;endArrow=oval;endFill=0;" edge="1" parent="1" source="cTqHBYPlCums_SRUW2VV-1">
          <mxGeometry relative="1" as="geometry">
            <mxPoint x="200" y="495.11627906976753" as="targetPoint" />
          </mxGeometry>
        </mxCell>
        <mxCell id="cTqHBYPlCums_SRUW2VV-1" value="" style="verticalLabelPosition=bottom;shadow=0;dashed=0;align=center;html=1;verticalAlign=top;shape=mxgraph.electrical.logic_gates.logic_gate;operation=and;" vertex="1" parent="1">
          <mxGeometry x="240" y="450" width="100" height="60" as="geometry" />
        </mxCell>
        <mxCell id="cTqHBYPlCums_SRUW2VV-6" style="edgeStyle=orthogonalEdgeStyle;rounded=0;orthogonalLoop=1;jettySize=auto;html=1;exitX=0;exitY=0.75;exitDx=0;exitDy=0;exitPerimeter=0;endArrow=oval;endFill=0;" edge="1" parent="1" source="cTqHBYPlCums_SRUW2VV-2">
          <mxGeometry relative="1" as="geometry">
            <mxPoint x="200" y="530" as="targetPoint" />
            <Array as="points">
              <mxPoint x="360" y="510" />
              <mxPoint x="360" y="530" />
            </Array>
          </mxGeometry>
        </mxCell>
        <mxCell id="cTqHBYPlCums_SRUW2VV-7" style="edgeStyle=orthogonalEdgeStyle;rounded=0;orthogonalLoop=1;jettySize=auto;html=1;exitX=1;exitY=0.5;exitDx=0;exitDy=0;exitPerimeter=0;endArrow=oval;endFill=0;" edge="1" parent="1" source="cTqHBYPlCums_SRUW2VV-2">
          <mxGeometry relative="1" as="geometry">
            <mxPoint x="499.9999999999999" y="495.11627906976753" as="targetPoint" />
          </mxGeometry>
        </mxCell>
        <mxCell id="cTqHBYPlCums_SRUW2VV-2" value="" style="verticalLabelPosition=bottom;shadow=0;dashed=0;align=center;html=1;verticalAlign=top;shape=mxgraph.electrical.logic_gates.logic_gate;operation=or;" vertex="1" parent="1">
          <mxGeometry x="375" y="465" width="100" height="60" as="geometry" />
        </mxCell>
        <mxCell id="cTqHBYPlCums_SRUW2VV-3" style="edgeStyle=orthogonalEdgeStyle;rounded=0;orthogonalLoop=1;jettySize=auto;html=1;exitX=1;exitY=0.5;exitDx=0;exitDy=0;exitPerimeter=0;entryX=0;entryY=0.25;entryDx=0;entryDy=0;entryPerimeter=0;endArrow=none;endFill=0;" edge="1" parent="1" source="cTqHBYPlCums_SRUW2VV-1" target="cTqHBYPlCums_SRUW2VV-2">
          <mxGeometry relative="1" as="geometry" />
        </mxCell>
        <mxCell id="cTqHBYPlCums_SRUW2VV-8" value="$$P_1$$" style="text;html=1;align=center;verticalAlign=middle;resizable=0;points=[];autosize=1;strokeColor=none;fillColor=none;" vertex="1" parent="1">
          <mxGeometry x="160" y="435" width="70" height="30" as="geometry" />
        </mxCell>
        <mxCell id="cTqHBYPlCums_SRUW2VV-9" value="$$P_0$$" style="text;html=1;align=center;verticalAlign=middle;resizable=0;points=[];autosize=1;strokeColor=none;fillColor=none;" vertex="1" parent="1">
          <mxGeometry x="160" y="468" width="70" height="30" as="geometry" />
        </mxCell>
        <mxCell id="cTqHBYPlCums_SRUW2VV-10" value="$$RESET$$" style="text;html=1;align=center;verticalAlign=middle;resizable=0;points=[];autosize=1;strokeColor=none;fillColor=none;" vertex="1" parent="1">
          <mxGeometry x="140" y="498" width="90" height="30" as="geometry" />
        </mxCell>
        <mxCell id="cTqHBYPlCums_SRUW2VV-11" value="$$Pause$$" style="text;html=1;align=center;verticalAlign=middle;resizable=0;points=[];autosize=1;strokeColor=none;fillColor=none;" vertex="1" parent="1">
          <mxGeometry x="460" y="465" width="80" height="30" as="geometry" />
        </mxCell>
      </root>
    </mxGraphModel>
  </diagram>
</mxfile>
